<mxfile host="app.diagrams.net" modified="2024-01-21T15:18:05.392Z" agent="Mozilla/5.0 (X11; Linux x86_64) AppleWebKit/537.36 (KHTML, like Gecko) Chrome/118.0.0.0 Safari/537.36" version="22.1.21" etag="oHFxeTzIxWp2zTyL9AYJ" type="github">
  <diagram name="Page-1" id="_NkAh-H-d3ZTiGTM_OEk">
    <mxGraphModel>
      <root>
        <mxCell id="0" />
        <mxCell id="1" parent="0" />
      </root>
    </mxGraphModel>
  </diagram>
</mxfile>
